<?xml version="1.0" encoding="utf-8"?>
<!-- Generator: Adobe Illustrator 25.0.1, SVG Export Plug-In . SVG Version: 6.00 Build 0)  -->
<svg version="1.1" id="Layer_1" xmlns="http://www.w3.org/2000/svg" xmlns:xlink="http://www.w3.org/1999/xlink" x="0px" y="0px"
	 viewBox="0 0 43.9 41.4" style="enable-background:new 0 0 43.9 41.4;" xml:space="preserve">
<path d="M24.1,20.7L41.8,3.1c0.6-0.6,0.6-1.5,0-2.1c-0.6-0.6-1.5-0.6-2.1,0L22,18.6L4.3,0.9c-0.6-0.6-1.5-0.6-2.1,0
	c-0.6,0.6-0.6,1.5,0,2.1l17.7,17.7L2.2,38.4c-0.6,0.6-0.6,1.5,0,2.1C2.5,40.8,2.9,41,3.3,41c0.4,0,0.8-0.1,1.1-0.4L22,22.8
	l17.7,17.7c0.3,0.3,0.7,0.4,1.1,0.4s0.8-0.1,1.1-0.4c0.6-0.6,0.6-1.5,0-2.1L24.1,20.7z"/>
</svg>
