<svg xmlns="http://www.w3.org/2000/svg" viewBox="0 0 40.5 40.5"><g id="Layer_4" data-name="Layer 4"><rect x="30.47" y="25.55" width="4" height="11.09" transform="translate(-12.38 34.23) rotate(-47.75)"/><polygon points="26 32.23 22.84 22.35 32.98 24.55 26 32.23"/><rect x="2.36" y="29.1" width="11.09" height="4" transform="translate(-18.86 13.39) rotate(-42.25)"/><polygon points="7.4 24.55 17.53 22.35 14.37 32.23 7.4 24.55"/><rect x="6.03" y="3.87" width="4" height="11.09" transform="translate(-4.34 9.03) rotate(-47.75)"/><polygon points="14.5 8.29 17.66 18.16 7.53 15.96 14.5 8.29"/><rect x="27.05" y="7.42" width="11.09" height="4" transform="translate(2.14 24.37) rotate(-42.25)"/><polygon points="33.1 15.96 22.97 18.16 26.13 8.29 33.1 15.96"/></g></svg>