<svg xmlns="http://www.w3.org/2000/svg" viewBox="0 0 40.5 40.5"><g id="Layer_4" data-name="Layer 4"><rect x="24.95" y="20.53" width="4" height="11.09" transform="translate(-10.47 28.49) rotate(-47.75)"/><polygon points="26.44 32.62 36.58 34.82 33.42 24.95 26.44 32.62"/><rect x="7.88" y="24.07" width="11.09" height="4" transform="translate(-14.04 15.8) rotate(-42.25)"/><polygon points="6.96 24.95 3.8 34.82 13.93 32.62 6.96 24.95"/><rect x="11.56" y="8.88" width="4" height="11.09" transform="translate(-6.24 14.76) rotate(-47.75)"/><polygon points="14.06 7.88 3.92 5.68 7.09 15.56 14.06 7.88"/><rect x="21.53" y="12.43" width="11.09" height="4" transform="translate(-2.67 21.95) rotate(-42.25)"/><polygon points="33.55 15.56 36.71 5.68 26.57 7.88 33.55 15.56"/></g></svg>