<?xml version="1.0" encoding="utf-8"?>
<!-- Generator: Adobe Illustrator 25.0.1, SVG Export Plug-In . SVG Version: 6.00 Build 0)  -->
<svg version="1.1" id="Layer_1" xmlns="http://www.w3.org/2000/svg" xmlns:xlink="http://www.w3.org/1999/xlink" x="0px" y="0px"
	 viewBox="0 0 54.6 41.4" style="enable-background:new 0 0 54.6 41.4;" xml:space="preserve">
<g>
	<path d="M30.9-0.1c-0.5-0.3-1.1-0.2-1.6,0.2L15.3,11H1.5C0.7,11,0,11.7,0,12.5v17.2c0,0.8,0.7,1.5,1.5,1.5h15.8L29,40.7
		c0.3,0.2,0.6,0.3,0.9,0.3c0.2,0,0.4,0,0.6-0.1c0.5-0.2,0.9-0.8,0.9-1.3l0.3-38.3C31.7,0.7,31.4,0.2,30.9-0.1z"/>
	<path d="M49.1,20.4l4.4-4.4c0.6-0.6,0.6-1.5,0-2.1c-0.6-0.6-1.5-0.6-2.1,0L47,18.3l-4.4-4.4c-0.6-0.6-1.5-0.6-2.1,0
		c-0.6,0.6-0.6,1.5,0,2.1l4.4,4.4l-4.4,4.4c-0.6,0.6-0.6,1.5,0,2.1c0.3,0.3,0.7,0.4,1.1,0.4c0.4,0,0.8-0.1,1.1-0.4l4.4-4.4l4.4,4.4
		c0.3,0.3,0.7,0.4,1.1,0.4c0.4,0,0.8-0.1,1.1-0.4c0.6-0.6,0.6-1.5,0-2.1L49.1,20.4z"/>
</g>
</svg>
