<?xml version="1.0" encoding="utf-8"?>
<!-- Generator: Adobe Illustrator 25.0.1, SVG Export Plug-In . SVG Version: 6.00 Build 0)  -->
<svg version="1.1" id="Layer_1" xmlns="http://www.w3.org/2000/svg" xmlns:xlink="http://www.w3.org/1999/xlink" x="0px" y="0px"
	 viewBox="0 0 54.6 41.4" style="enable-background:new 0 0 54.6 41.4;" xml:space="preserve">
<g>
	<path d="M34.9,0.3c-0.3,0-1.3,0-1.6,0c-0.9,0-1.7,0.9-1.7,2v36.8c0,1.1,0.8,2,1.7,2c0.3,0,1.3,0,1.6,0c0.9,0,1.7-0.9,1.7-2V2.3
		C36.6,1.1,35.8,0.3,34.9,0.3z"/>
	<path d="M21.3,0.3c-0.3,0-1.3,0-1.6,0c-0.9,0-1.7,0.9-1.7,2v36.8c0,1.1,0.8,2,1.7,2c0.3,0,1.3,0,1.6,0c0.9,0,1.7-0.9,1.7-2V2.3
		C23,1.1,22.2,0.3,21.3,0.3z"/>
</g>
</svg>
