<?xml version="1.0" encoding="utf-8"?>
<!-- Generator: Adobe Illustrator 25.0.1, SVG Export Plug-In . SVG Version: 6.00 Build 0)  -->
<svg version="1.1" id="Layer_1" xmlns="http://www.w3.org/2000/svg" xmlns:xlink="http://www.w3.org/1999/xlink" x="0px" y="0px"
	 viewBox="0 0 54.6 41.4" style="enable-background:new 0 0 54.6 41.4;" xml:space="preserve">
<g>
	<g>
		<path d="M20.9,40.5c-0.3,0-0.5-0.1-0.8-0.2c-0.5-0.3-0.7-0.8-0.7-1.3l0.4-36.9c0-0.5,0.3-1,0.8-1.3s1-0.3,1.5,0l31.8,18.6
			c0.5,0.3,0.7,0.8,0.7,1.3s-0.3,1-0.8,1.3L21.7,40.3C21.4,40.5,21.2,40.5,20.9,40.5z"/>
	</g>
	<path d="M11.9,0.3c-0.3,0-1.3,0-1.6,0c-0.9,0-1.7,0.9-1.7,2v36.8c0,1.1,0.8,2,1.7,2c0.3,0,1.3,0,1.6,0c0.9,0,1.7-0.9,1.7-2V2.3
		C13.6,1.1,12.8,0.3,11.9,0.3z"/>
	<path d="M4.1,0.3c-0.3,0-1.3,0-1.6,0c-0.9,0-1.7,0.9-1.7,2v36.8c0,1.1,0.8,2,1.7,2c0.3,0,1.3,0,1.6,0c0.9,0,1.7-0.9,1.7-2V2.3
		C5.8,1.1,5,0.3,4.1,0.3z"/>
</g>
</svg>
