<?xml version="1.0" encoding="utf-8"?>
<!-- Generator: Adobe Illustrator 25.0.1, SVG Export Plug-In . SVG Version: 6.00 Build 0)  -->
<svg version="1.1" id="Layer_1" xmlns="http://www.w3.org/2000/svg" xmlns:xlink="http://www.w3.org/1999/xlink" x="0px" y="0px"
	 viewBox="0 0 54.6 41.4" style="enable-background:new 0 0 54.6 41.4;" xml:space="preserve">
<g>
	<path d="M21.2,28.8c0.2,0,0.3,0,0.5-0.1l16.8-9.5c0.3-0.2,0.5-0.5,0.5-0.9s-0.2-0.7-0.5-0.9L21.9,7.8c-0.3-0.2-0.7-0.2-1,0
		c-0.3,0.2-0.5,0.5-0.5,0.9l-0.2,19.2c0,0.4,0.2,0.7,0.5,0.9C20.8,28.8,21,28.8,21.2,28.8z"/>
	<path d="M45.1,18.6c0-9.8-8-17.8-17.8-17.8c0,0,0,0,0,0c-4.7,0-9.2,1.8-12.6,5.2c-3.4,3.4-5.2,7.8-5.2,12.6s1.8,9.2,5.2,12.6
		c0.4,0.4,1,0.4,1.4,0s0.4-1,0-1.4c-3-3-4.6-6.9-4.6-11.1c0-8.7,7.1-15.8,15.8-15.8c0,0,0,0,0,0c8.7,0,15.8,7.1,15.8,15.8
		c0,8.4-6.6,15.2-14.8,15.7l0-3.1c0-0.4-0.2-0.7-0.5-0.9c-0.3-0.2-0.7-0.2-1,0l-7.3,4.1C19.2,34.6,19,35,19,35.3s0.2,0.7,0.5,0.9
		l7.2,4.2c0.2,0.1,0.3,0.1,0.5,0.1c0.2,0,0.3,0,0.5-0.1c0.3-0.2,0.5-0.5,0.5-0.9l0-3.2c4.4-0.2,8.5-2,11.6-5.2
		C43.2,27.8,45.1,23.3,45.1,18.6z"/>
</g>
</svg>
