<?xml version="1.0" encoding="utf-8"?>
<!-- Generator: Adobe Illustrator 25.0.1, SVG Export Plug-In . SVG Version: 6.00 Build 0)  -->
<svg version="1.1" id="Layer_1" xmlns="http://www.w3.org/2000/svg" xmlns:xlink="http://www.w3.org/1999/xlink" x="0px" y="0px"
	 viewBox="0 0 54.6 41.4" style="enable-background:new 0 0 54.6 41.4;" xml:space="preserve">
<g>
	<path d="M36.2,40.4L4.1,22.1c-0.5-0.3-0.8-0.8-0.8-1.3s0.2-1,0.7-1.3L35.8,0.9c0.5-0.3,1-0.3,1.5,0s0.8,0.8,0.8,1.3l0.4,36.9
		c0,0.5-0.2,1-0.7,1.3c-0.3,0.1-0.5,0.2-0.8,0.2S36.5,40.6,36.2,40.4z"/>
</g>
<path d="M45.9,2.4v36.8c0,1.1,0.8,2,1.7,2c0.3,0,1.3,0,1.6,0c0.9,0,1.7-0.9,1.7-2V2.4c0-1.1-0.8-2-1.7-2c-0.3,0-1.3,0-1.6,0
	C46.7,0.4,45.9,1.2,45.9,2.4z"/>
</svg>
