<?xml version="1.0" encoding="utf-8"?>
<!-- Generator: Adobe Illustrator 25.0.1, SVG Export Plug-In . SVG Version: 6.00 Build 0)  -->
<svg version="1.1" id="Layer_1" xmlns="http://www.w3.org/2000/svg" xmlns:xlink="http://www.w3.org/1999/xlink" x="0px" y="0px"
	 viewBox="0 0 54.6 41.4" style="enable-background:new 0 0 54.6 41.4;" xml:space="preserve">
<g>
	<path d="M17.2,40.6c-0.3,0-0.5-0.1-0.8-0.2c-0.5-0.3-0.7-0.8-0.7-1.3l0.4-36.9c0-0.5,0.3-1,0.8-1.3c0.5-0.3,1-0.3,1.5,0l31.8,18.6
		c0.5,0.3,0.7,0.8,0.7,1.3s-0.3,1-0.8,1.3L18,40.4C17.7,40.6,17.5,40.6,17.2,40.6z"/>
</g>
<path d="M6.6,0.4c-0.3,0-1.3,0-1.6,0c-0.9,0-1.7,0.9-1.7,2v36.8c0,1.1,0.8,2,1.7,2c0.3,0,1.3,0,1.6,0c0.9,0,1.7-0.9,1.7-2V2.4
	C8.3,1.2,7.5,0.4,6.6,0.4z"/>
</svg>
