<?xml version="1.0" encoding="utf-8"?>
<!-- Generator: Adobe Illustrator 25.0.1, SVG Export Plug-In . SVG Version: 6.00 Build 0)  -->
<svg version="1.1" id="Layer_1" xmlns="http://www.w3.org/2000/svg" xmlns:xlink="http://www.w3.org/1999/xlink" x="0px" y="0px"
	 viewBox="0 0 54.6 41.4" style="enable-background:new 0 0 54.6 41.4;" xml:space="preserve">
<g>
	<path d="M29.9,41.3c-0.3,0-0.7-0.1-0.9-0.3l-11.7-9.4H1.5c-0.8,0-1.5-0.7-1.5-1.5V12.8c0-0.8,0.7-1.5,1.5-1.5h13.8l14-10.9
		C29.7,0,30.4,0,30.9,0.2c0.5,0.3,0.8,0.8,0.8,1.4l-0.3,38.3c0,0.6-0.3,1.1-0.9,1.3C30.4,41.3,30.1,41.3,29.9,41.3z M3,28.6h14.8
		c0.3,0,0.7,0.1,0.9,0.3l9.7,7.8l0.2-32.1l-12,9.3c-0.3,0.2-0.6,0.3-0.9,0.3H3V28.6z"/>
</g>
<g>
	<path d="M39,34.8c-0.8,0-1.5-0.7-1.5-1.5s0.7-1.5,1.5-1.5c6.9,0,12.6-5,12.6-11.1C51.6,14.6,46,9.6,39,9.6c-0.8,0-1.5-0.7-1.5-1.5
		s0.7-1.5,1.5-1.5c8.6,0,15.6,6.3,15.6,14.1C54.6,28.5,47.6,34.8,39,34.8z"/>
</g>
<g>
	<path d="M40.5,27.6c-0.8,0-1.5-0.7-1.5-1.5s0.7-1.5,1.5-1.5c2.5,0,4.5-1.7,4.5-3.9c0-2.1-2-3.9-4.5-3.9c-0.8,0-1.5-0.7-1.5-1.5
		s0.7-1.5,1.5-1.5c4.1,0,7.5,3.1,7.5,6.9C48,24.5,44.6,27.6,40.5,27.6z"/>
</g>
</svg>
