<svg xmlns="http://www.w3.org/2000/svg" viewBox="0 0 40.5 40.5"><g id="Layer_6" data-name="Layer 6"><path d="M20.61,14.61l-.08,11.24-2.39-1.92a4,4,0,0,0-2.5-.88H7.81V18.54h6.4a4,4,0,0,0,2.46-.85l3.94-3.08m4.06-8.26L14.21,14.54H3.81V27.05H15.64l8.83,7.1.2-27.8Z"/><path d="M26.47,31.41v-4c4.53,0,8.22-3.21,8.22-7.16S31,13.1,26.47,13.1v-4c6.74,0,12.22,5,12.22,11.15S33.21,31.41,26.47,31.41Z"/><path d="M27.48,26.17v-4a2.19,2.19,0,0,0,2.38-1.92,2.18,2.18,0,0,0-2.38-1.91v-4a6.16,6.16,0,0,1,6.38,5.91A6.17,6.17,0,0,1,27.48,26.17Z"/></g></svg>